<?xml version="1.0" encoding="UTF-8"?>
<!DOCTYPE svg PUBLIC "-//W3C//DTD SVG 1.1//EN" "http://www.w3.org/Graphics/SVG/1.1/DTD/svg11.dtd">
<svg version="1.1" xmlns="http://www.w3.org/2000/svg" xmlns:xlink="http://www.w3.org/1999/xlink" x="0" y="0" width="256" height="128" viewBox="0, 0, 1024, 512">
  <g id="Layer_1">
    <g>
      <path d="M137.043,390.568 L235.727,147.53 L217.785,147.53 L141.529,340.003 L63.235,147.53 L45.292,147.53 L132.966,359.985 L123.179,384.044 C112.984,408.919 96.673,422.376 77.507,422.376 C65.681,422.376 54.671,419.113 45.292,412.589 L37.952,427.269 C48.962,435.425 62.827,439.502 78.323,439.502 C103.197,439.502 123.994,422.376 137.043,390.568 z" fill="#2F3F97"/>
      <path d="M542.671,319.614 L542.671,153.239 L526.36,153.239 L526.36,205.843 C513.719,175.667 480.688,151.608 438.279,151.608 C379.966,151.608 337.964,196.056 337.964,255.592 C337.964,315.944 382.005,359.169 439.502,359.169 C479.873,359.169 513.311,337.557 528.807,303.303 L528.807,324.508 C530.03,351.013 547.157,366.917 569.177,366.917 C608.324,366.917 634.015,324.1 634.015,257.631 C634.015,150.384 556.944,72.498 451.328,72.498 C344.081,72.498 264.563,150.792 264.563,257.223 C264.563,359.577 341.634,434.609 446.027,434.609 C470.901,434.609 505.155,425.638 526.36,412.996 L520.243,399.947 C500.262,411.773 469.27,419.521 446.027,419.521 C349.79,419.521 278.835,351.013 278.835,257.223 C278.835,159.355 352.236,87.178 451.328,87.178 C550.011,87.178 620.15,159.355 620.15,257.631 C620.15,315.536 599.761,353.052 570.808,353.052 C555.312,353.052 542.671,340.819 542.671,319.614 z M440.318,168.327 C490.067,168.327 525.952,205.435 525.952,255.184 C525.952,305.342 490.475,342.45 440.318,342.45 C390.568,342.45 355.091,305.342 355.091,255.184 C355.091,205.435 390.568,168.327 440.318,168.327 z" fill="#2F3F97"/>
      <path d="M710.386,200.949 L710.386,147.53 L693.26,147.53 L693.26,359.985 L710.386,359.985 L710.386,244.99 C714.057,195.648 742.601,164.657 789.496,164.657 L789.496,147.122 C751.573,147.937 723.843,166.695 710.386,200.949 z" fill="#2F3F97"/>
      <path d="M810.701,147.53 L884.918,250.291 L804.584,359.985 L824.158,359.985 L895.52,263.34 L966.474,359.985 L986.048,359.985 L906.53,250.291 L980.747,147.53 L961.581,147.53 L895.928,237.65 L830.275,147.53 z" fill="#2F3F97"/>
    </g>
  </g>
</svg>
